<svg width="779" height="904" viewBox="0 0 779 904" fill="none" xmlns="http://www.w3.org/2000/svg">
<path fill-rule="evenodd" clip-rule="evenodd" d="M776.878 463.552L398.883 681.787L582.264 787.663L776.878 675.302V463.552Z" stroke="white" stroke-width="3"/>
<path fill-rule="evenodd" clip-rule="evenodd" d="M572.496 795.787L194.5 577.552L194.5 789.302L389.115 901.662L572.496 795.787Z" stroke="white" stroke-width="3"/>
<path fill-rule="evenodd" clip-rule="evenodd" d="M184.881 783.023L184.881 346.552L1.5 452.427L1.50001 677.148L184.881 783.023Z" stroke="white" stroke-width="3"/>
<path fill-rule="evenodd" clip-rule="evenodd" d="M1.5 440.663L379.496 222.427L196.115 116.552L1.50002 228.912L1.5 440.663Z" stroke="white" stroke-width="3"/>
<path fill-rule="evenodd" clip-rule="evenodd" d="M205.5 107.607L583.495 325.843L583.496 114.093L388.881 1.73206L205.5 107.607Z" stroke="white" stroke-width="3"/>
<path fill-rule="evenodd" clip-rule="evenodd" d="M593.496 118.552L593.496 555.023L776.877 449.148V224.427L593.496 118.552Z" stroke="white" stroke-width="3"/>
</svg>
