<svg viewBox="-180 -10 2680 2680" xmlns="http://www.w3.org/2000/svg" fill="none">
  <path fill="#083344" d="M1750.72 2334.36L1754.93 2014.31L1227.59 2001.14L1192.15 2021.6L1742.29 2339.23L1750.72 2334.36Z"></path>
  <path fill="#0E7490" d="M1227.59 2001.14L2290.7 1387.36L2186.9 1745.6C2182.58 1760.48 2172.68 1773.12 2159.27 1780.86L1754.93 2014.31L1227.59 2001.14Z"></path>
  <path fill="#0E7490" d="M1754.93 2014.31L1750.72 2334.36L2266.14 2036.79C2303.26 2015.35 2326.14 1975.74 2326.14 1932.86V1366.9L2290.7 1387.36L2186.9 1745.6C2182.58 1760.48 2172.68 1773.12 2159.27 1780.86L1754.93 2014.31Z"></path>

  <path fill="#083344" d="M587.426 2349.01L866.71 2192.63L614.437 1729.35L579 1708.89L579 2344.14L587.426 2349.01Z"></path>
  <path fill="#0E7490" d="M614.437 1729.35L1677.55 2343.14L1315.4 2432.37C1300.36 2436.08 1284.46 2433.82 1271.05 2426.07L866.71 2192.63L614.437 1729.35Z"></path>
  <path fill="#0E7490" d="M866.71 2192.63L587.426 2349.01L1102.84 2646.59C1139.97 2668.02 1185.72 2668.02 1222.84 2646.59L1712.99 2363.6L1677.55 2343.14L1315.4 2432.37C1300.36 2436.08 1284.46 2433.82 1271.05 2426.07L866.71 2192.63Z"></path>

  <path fill="#083344" d="M2326.14 1313.96L2051.07 1150.28L1775.99 1600.39V1641.31L2326.14 1323.68V1313.96Z"></path>
  <path fill="#0E7490" d="M1775.99 1600.39V372.811L2034.34 641.831C2045.07 653.006 2051.07 667.898 2051.07 683.391V1150.28L1775.99 1600.39Z"></path>
  <path fill="#0E7490" d="M2051.07 1150.28L2326.14 1313.96V718.802C2326.14 675.93 2303.27 636.315 2266.14 614.879L1775.99 331.895V372.811L2034.34 641.831C2045.07 653.006 2051.07 667.898 2051.07 683.391V1150.28Z"></path>

  <path fill="#083344" d="M0 1343.25L275.072 1506.93L550.143 1056.81V1015.89L0 1333.52V1343.25Z"></path>
  <path fill="#0E7490" d="M550.143 1056.81V2284.39L291.795 2015.37C281.064 2004.2 275.072 1989.31 275.072 1973.81L275.072 1506.93L550.143 1056.81Z"></path>
  <path fill="#0E7490" d="M275.072 1506.93L0 1343.25L8.20064e-05 1938.4C8.79137e-05 1981.27 22.872 2020.89 60.0001 2042.33L550.143 2325.31V2284.39L291.795 2015.37C281.064 2004.2 275.072 1989.31 275.072 1973.81L275.072 1506.93Z"></path>

  <path fill="#083344" d="M575.419 330.759L571.206 650.816L1098.55 663.98L1133.99 643.52L583.844 325.895L575.419 330.759Z"></path>
  <path fill="#0E7490" d="M1098.55 663.98L35.435 1277.77L139.239 919.524C143.551 904.643 153.452 892.007 166.869 884.261L571.206 650.816L1098.55 663.98Z"></path>
  <path fill="#0E7490" d="M575.419 330.759L571.206 650.816L166.869 884.261C153.452 892.007 143.551 904.643 139.239 919.524L35.435 1277.77L4.94785e-05 1298.23L0 732.259C-3.74797e-06 689.387 22.8719 649.772 60 628.336L575.419 330.759Z"></path>

  <path fill="#083344" d="M1737.56 313.654L1458.28 470.034L1710.55 933.309L1745.99 953.768L1745.99 318.518L1737.56 313.654Z"></path>
  <path fill="#0E7490" d="M1710.55 933.309L647.435 319.519L1009.59 230.294C1024.63 226.587 1040.52 228.844 1053.94 236.59L1458.28 470.034L1710.55 933.309Z"></path>
  <path fill="#0E7490" d="M1458.28 470.034L1737.56 313.654L1222.14 16.077C1185.01 -5.35896 1139.27 -5.359 1102.14 16.0769L612 299.061L647.435 319.519L1009.59 230.294C1024.63 226.587 1040.52 236.59L1458.28 470.034Z"></path>
</svg>